<svg width="60" height="60" viewBox="0 0 60 60" fill="none" xmlns="http://www.w3.org/2000/svg">
<g clip-path="url(#clip0)">
<path d="M55.7195 20.7308C55.4769 18.9069 55.4427 15.7654 57.1368 14.7106C57.1671 14.6913 57.1896 14.6633 57.2161 14.6393C58.6012 14.1963 59.5597 13.5746 58.8073 12.7381L38.376 6.58191L5.29307 11.1815C5.29307 11.1815 1.50466 11.7229 1.84309 17.6087C2.0268 20.8121 3.03152 22.3854 3.91017 23.1596L1.19542 23.9778C0.441928 24.8143 1.40027 25.4362 2.78549 25.8785C2.81181 25.9032 2.83401 25.931 2.86481 25.9503C4.55784 27.006 4.52525 30.1471 4.28173 31.9714C-1.80046 33.6985 0.382838 34.2613 0.382838 34.2613L1.71703 34.5841C0.778564 35.4322 -0.153452 37.0403 0.0211332 40.0903C0.359739 45.9749 3.47147 46.3811 3.47147 46.3811L25.1208 53.4178L57.7977 45.5029C57.7977 45.5029 59.9817 44.9393 53.8979 43.212C53.6533 41.3906 53.6193 38.2499 55.3163 37.1914C55.3474 37.1726 55.3702 37.1442 55.3954 37.1205C56.7807 36.6775 57.7383 36.0564 56.9857 35.2198L55.5654 34.7909C56.5126 34.2197 57.9354 32.7269 58.1584 28.8491C58.3122 26.1818 57.6163 24.6197 56.8109 23.7L59.6182 23.0207C59.6184 23.0217 61.8024 22.4581 55.7195 20.7308ZM28.3872 20.6554L33.8822 19.5261L52.4524 15.7099L55.2191 15.1409C54.335 16.7589 54.3721 18.9732 54.5184 20.3963C54.5504 20.7183 54.5873 21.0123 54.6231 21.2358L51.5948 21.9887L28.1562 27.8195L28.3872 20.6554ZM4.78274 26.3824L7.54907 26.9514L25.3831 30.6175L26.9411 30.9366L31.6133 31.8969L31.8438 39.0612L7.75391 33.0678L5.37902 32.4776C5.41394 32.2538 5.45082 31.9601 5.48431 31.6373C5.6297 30.2152 5.66749 28.0004 4.78274 26.3824ZM3.70801 17.3254C3.67453 15.7599 3.95351 14.6277 4.51737 14.0522C4.87621 13.6847 5.29969 13.6083 5.59013 13.6083C5.74359 13.6083 5.85407 13.6296 5.86159 13.6296L20.1162 18.2768L27.228 20.5955L26.9946 27.8097L7.04322 22.2161L5.99033 21.9212C5.95166 21.9103 5.89919 21.9028 5.85872 21.901C5.77654 21.8951 3.80399 21.7135 3.70801 17.3254ZM25.1723 50.2923L4.16856 44.4037C4.1297 44.3924 4.07778 44.3849 4.03731 44.3829C3.95369 44.3774 1.98025 44.196 1.88481 39.809C1.85079 38.2415 2.1312 37.1103 2.69399 36.5343C3.05372 36.1668 3.47738 36.0904 3.76728 36.0904C3.9211 36.0904 4.03122 36.111 4.03928 36.111C4.03928 36.111 4.04017 36.111 4.03928 36.111L25.4042 43.0779L25.1723 50.2923ZM52.695 42.8779C52.7281 43.2009 52.765 43.4944 52.8008 43.7182L26.3334 50.3025L26.5647 43.1383L32.2232 41.9749L33.0589 42.1771L36.1911 41.1591L50.629 38.1922L53.3967 37.6228C52.5118 39.2406 52.5485 41.4558 52.695 42.8779ZM54.1529 33.1414C54.1048 33.1425 54.0566 33.1489 54.0113 33.1633L52.0151 33.7221L33.0081 39.0517L32.7756 31.8375L39.0116 29.8035L54.1114 24.8792C54.1133 24.8783 54.9057 24.7022 55.4873 25.2937C56.0503 25.8692 56.3296 27.0014 56.2966 28.5669C56.1982 32.9536 54.2247 33.1359 54.1529 33.1414Z" fill="#1B1B1B"/>
</g>
<defs>
<clipPath id="clip0">
<rect width="60" height="59.9998" fill="white"/>
</clipPath>
</defs>
</svg>
