<svg width="60" height="60" viewBox="0 0 60 60" fill="none" xmlns="http://www.w3.org/2000/svg">
<g clip-path="url(#clip0)">
<path d="M5.39226 59.9999C8.26414 59.9999 11.6664 57.868 15.7983 53.4803C18.2049 50.9208 21.6404 49.4532 25.0151 49.4532H34.985C38.3599 49.4532 41.7952 50.9208 44.2018 53.4803C48.3337 57.8679 51.736 59.9999 54.6079 59.9999C56.4996 59.9999 58.0393 58.915 58.9406 56.9461C59.6169 55.4715 59.9997 53.4717 59.9997 51.0066C59.9997 40.8152 53.4059 21.2112 43.3123 21.2112C40.2636 21.2112 38.8406 22.1828 37.584 23.0394C36.6002 23.7107 35.6416 24.3387 33.8112 24.6715C34.6054 23.4236 35.2736 21.9241 35.2736 20.3323C35.2736 16.5678 31.5795 13.2256 31.1606 12.8599C30.4035 12.1922 28.2424 9.75416 28.2424 7.91059C28.2424 6.06702 30.4035 3.74615 31.1606 3.07842C31.8866 2.43812 31.9588 1.32754 31.3185 0.5997C30.68 -0.133299 29.571 -0.20197 28.8432 0.434937C28.4209 0.803956 24.7268 4.14622 24.7268 7.91071C24.7268 11.6752 28.4209 15.1346 28.8398 15.5003C29.5968 16.168 31.758 18.4889 31.758 20.3324C31.758 21.8876 30.2266 23.7714 29.291 24.7269H26.5704C24.3868 24.3836 23.429 23.7313 22.4162 23.0396C21.1597 22.1829 19.7367 21.2113 16.688 21.2113C6.59436 21.2113 0.000411987 40.8153 0.000411987 51.0067C0.000411987 59.1228 3.78377 59.9999 5.39226 59.9999ZM44.0624 42.3048C43.0916 42.3048 42.3046 41.5178 42.3046 40.547C42.3046 39.5763 43.0916 38.7893 44.0624 38.7893C45.0332 38.7893 45.8202 39.5763 45.8202 40.547C45.8202 41.5178 45.0332 42.3048 44.0624 42.3048ZM47.578 35.2737C48.5487 35.2737 49.3358 36.0607 49.3358 37.0315C49.3358 38.0022 48.5487 38.7893 47.578 38.7893C46.6072 38.7893 45.8202 38.0022 45.8202 37.0315C45.8202 36.0607 46.6073 35.2737 47.578 35.2737ZM44.0624 31.7581C45.0332 31.7581 45.8202 32.5451 45.8202 33.5159C45.8202 34.4866 45.0332 35.2737 44.0624 35.2737C43.0916 35.2737 42.3046 34.4866 42.3046 33.5159C42.3046 32.5451 43.0917 31.7581 44.0624 31.7581ZM40.5468 35.2737C41.5176 35.2737 42.3046 36.0607 42.3046 37.0315C42.3046 38.0022 41.5176 38.7893 40.5468 38.7893C39.576 38.7893 38.789 38.0022 38.789 37.0315C38.789 36.0607 39.5762 35.2737 40.5468 35.2737ZM26.4845 35.2737H33.5156C34.4872 35.2737 35.2734 36.0599 35.2734 37.0315C35.2734 38.0031 34.4872 38.7893 33.5156 38.7893H26.4845C25.5129 38.7893 24.7267 38.0031 24.7267 37.0315C24.7267 36.0599 25.5129 35.2737 26.4845 35.2737ZM12.4221 35.2737H14.1799V33.5159C14.1799 32.5443 14.9661 31.7581 15.9377 31.7581C16.9093 31.7581 17.6955 32.5443 17.6955 33.5159V35.2737H19.4533C20.4249 35.2737 21.2111 36.0599 21.2111 37.0315C21.2111 38.0031 20.4249 38.7893 19.4533 38.7893H17.6955V40.547C17.6955 41.5186 16.9093 42.3048 15.9377 42.3048C14.9661 42.3048 14.1799 41.5186 14.1799 40.547V38.7893H12.4221C11.4506 38.7893 10.6643 38.0031 10.6643 37.0315C10.6643 36.0599 11.4506 35.2737 12.4221 35.2737Z" fill="#1B1B1B"/>
</g>
<defs>
<clipPath id="clip0">
<rect width="60" height="60" fill="white"/>
</clipPath>
</defs>
</svg>
