<svg width="60" height="55" viewBox="0 0 60 55" fill="none" xmlns="http://www.w3.org/2000/svg">
<path d="M56.4844 20.625H35.1877C37.2498 18.5025 39.2578 15.3526 39.2578 11.1328C39.2578 6.9791 40.2204 5.67633 41.0591 5.00543C42.347 3.97512 44.719 3.51562 48.75 3.51562C49.7208 3.51562 50.5078 2.72859 50.5078 1.75781C50.5078 0.787031 49.7208 0 48.75 0C43.734 0 40.8695 0.654844 38.8628 2.2602C36.0969 4.47293 35.7422 8.16422 35.7422 11.1328C35.7422 16.5918 30.8762 19.8386 29.5436 20.625H3.51562C1.57711 20.625 0 22.2021 0 24.1406V50.625C0 52.5635 1.57711 54.1406 3.51562 54.1406H56.4844C58.4229 54.1406 60 52.5635 60 50.625V24.1406C60 22.2021 58.4229 20.625 56.4844 20.625ZM56.4844 50.625H3.51562V24.1406H56.4844C56.4866 51.228 56.4961 50.625 56.4844 50.625Z" fill="black"/>
<path d="M11.25 43.125H9.375C8.40422 43.125 7.61719 43.912 7.61719 44.8828C7.61719 45.8536 8.40422 46.6406 9.375 46.6406H11.25C12.2208 46.6406 13.0078 45.8536 13.0078 44.8828C13.0078 43.912 12.2208 43.125 11.25 43.125Z" fill="black"/>
<path d="M17.6953 37.3828C17.6953 36.412 16.9083 35.625 15.9375 35.625H14.0625C13.0917 35.625 12.3047 36.412 12.3047 37.3828C12.3047 38.3536 13.0917 39.1406 14.0625 39.1406H15.9375C16.9083 39.1406 17.6953 38.3536 17.6953 37.3828Z" fill="black"/>
<path d="M21.6797 37.3828C21.6797 38.3536 22.4667 39.1406 23.4375 39.1406H25.3125C26.2833 39.1406 27.0703 38.3536 27.0703 37.3828C27.0703 36.412 26.2833 35.625 25.3125 35.625H23.4375C22.4667 35.625 21.6797 36.412 21.6797 37.3828Z" fill="black"/>
<path d="M31.0547 37.3828C31.0547 38.3536 31.8417 39.1406 32.8125 39.1406H34.6875C35.6583 39.1406 36.4453 38.3536 36.4453 37.3828C36.4453 36.412 35.6583 35.625 34.6875 35.625H32.8125C31.8417 35.625 31.0547 36.412 31.0547 37.3828Z" fill="black"/>
<path d="M44.0625 35.625H42.1875C41.2167 35.625 40.4297 36.412 40.4297 37.3828C40.4297 38.3536 41.2167 39.1406 42.1875 39.1406H44.0625C45.0333 39.1406 45.8203 38.3536 45.8203 37.3828C45.8203 36.412 45.0333 35.625 44.0625 35.625Z" fill="black"/>
<path d="M50.5078 29.8828C50.5078 28.912 49.7208 28.125 48.75 28.125H46.875C45.9042 28.125 45.1172 28.912 45.1172 29.8828C45.1172 30.8536 45.9042 31.6406 46.875 31.6406H48.75C49.7208 31.6406 50.5078 30.8536 50.5078 29.8828Z" fill="black"/>
<path d="M37.5 31.6406H39.375C40.3458 31.6406 41.1328 30.8536 41.1328 29.8828C41.1328 28.912 40.3458 28.125 39.375 28.125H37.5C36.5292 28.125 35.7422 28.912 35.7422 29.8828C35.7422 30.8536 36.5292 31.6406 37.5 31.6406Z" fill="black"/>
<path d="M28.125 31.6406H30C30.9708 31.6406 31.7578 30.8536 31.7578 29.8828C31.7578 28.912 30.9708 28.125 30 28.125H28.125C27.1542 28.125 26.3672 28.912 26.3672 29.8828C26.3672 30.8536 27.1542 31.6406 28.125 31.6406Z" fill="black"/>
<path d="M18.75 31.6406H20.625C21.5958 31.6406 22.3828 30.8536 22.3828 29.8828C22.3828 28.912 21.5958 28.125 20.625 28.125H18.75C17.7792 28.125 16.9922 28.912 16.9922 29.8828C16.9922 30.8536 17.7792 31.6406 18.75 31.6406Z" fill="black"/>
<path d="M9.375 31.6406H11.25C12.2208 31.6406 13.0078 30.8536 13.0078 29.8828C13.0078 28.912 12.2208 28.125 11.25 28.125H9.375C8.40422 28.125 7.61719 28.912 7.61719 29.8828C7.61719 30.8536 8.40422 31.6406 9.375 31.6406Z" fill="black"/>
<path d="M50.625 43.125H48.75C47.7792 43.125 46.9922 43.912 46.9922 44.8828C46.9922 45.8536 47.7792 46.6406 48.75 46.6406H50.625C51.5958 46.6406 52.3828 45.8536 52.3828 44.8828C52.3828 43.912 51.5958 43.125 50.625 43.125Z" fill="black"/>
<path d="M41.25 43.125H18.75C17.7792 43.125 16.9922 43.912 16.9922 44.8828C16.9922 45.8536 17.7792 46.6406 18.75 46.6406H41.25C42.2208 46.6406 43.0078 45.8536 43.0078 44.8828C43.0078 43.912 42.2208 43.125 41.25 43.125Z" fill="black"/>
</svg>
