<svg width="58" height="68" viewBox="0 0 58 68" fill="none" xmlns="http://www.w3.org/2000/svg">
<g clip-path="url(#clip0)">
<path d="M46.1055 4.48438H11.8945C5.33572 4.48438 0 9.63611 0 15.9687V34.4471C0 40.7798 5.33572 45.9315 11.8945 45.9315H13.6597L17.7967 50.9991C18.1192 51.3939 18.6109 51.6241 19.1313 51.6241C19.6516 51.6241 20.1437 51.3939 20.4659 50.9991L24.6028 45.9315H46.1055C52.6643 45.9315 58 40.7798 58 34.4471V15.9687C58 9.63611 52.6643 4.48438 46.1055 4.48438V4.48438Z" fill="#6787F5"/>
<path d="M46.1055 4.48438H29V45.9315H46.1055C52.6643 45.9315 58 40.7798 58 34.4471V15.9688C58 9.63611 52.6643 4.48438 46.1055 4.48438Z" fill="#38478A"/>
<path d="M22.6288 48.3498L24.6028 45.9316L22.6288 48.3498Z" fill="white"/>
<path d="M58 17.9653H43.7128L54.348 7.69684C52.2085 5.70886 49.3026 4.48438 46.1055 4.48438H43.2571L36.504 11.0046V4.48438H21.4964V11.0046L14.7434 4.48438H11.8945C8.69743 4.48438 5.7915 5.70886 3.65199 7.69684L14.2872 17.9653H0V32.4553H14.2872L4.05113 42.338L3.65421 42.7212C5.79372 44.7083 8.69876 45.9315 11.8945 45.9315H13.6597L14.1394 46.519L21.3141 39.5912L21.1978 45.9315H36.5036V39.434L43.211 45.9315H46.1055C49.2875 45.9315 52.1815 44.719 54.3179 42.7473L53.9179 42.3593L43.6943 32.4553H58V17.9653Z" fill="white"/>
<path d="M58 17.9653H43.7128L54.348 7.69684C52.2085 5.70886 49.3026 4.48438 46.1055 4.48438H43.2571L36.504 11.0046V4.48438H29V45.9315H36.5036V39.434L43.211 45.9315H46.1055C49.2875 45.9315 52.1815 44.719 54.3179 42.7473L53.9179 42.3593L43.6943 32.4553H58V17.9653Z" fill="#C7D3ED"/>
<path d="M33.1051 21.2465V4.48438H24.8949V21.2465H0V29.1741H24.8949L24.6028 45.9315H33.1051V29.1741H58V21.2465H33.1051Z" fill="#FF337A"/>
<path d="M33.1051 21.2465V4.48438H29V45.9315H33.1051V29.1741H58V21.2465H33.1051Z" fill="#D1005B"/>
<path d="M22.6288 19.0587V16.7388L10.0758 4.61865C8.78859 4.81006 7.5686 5.20184 6.45128 5.7594L20.226 19.0587H22.6288Z" fill="#FF337A"/>
<path d="M51.5487 5.7594C50.4314 5.20184 49.2114 4.81006 47.9242 4.61865L35.3712 16.7388V19.0587H37.774L51.5487 5.7594Z" fill="#D1005B"/>
<path d="M6.45438 44.6583C7.57214 45.2155 8.79213 45.6068 10.0798 45.7982L22.6288 33.6815V31.3616H20.226L6.45438 44.6583Z" fill="#FF337A"/>
<path d="M35.3712 31.3616V33.6884L47.8773 45.8042C49.1672 45.6171 50.3902 45.23 51.5107 44.6758L37.7673 31.3616H35.3712Z" fill="#D1005B"/>
</g>
<path d="M4.57324 61.3564H2.93945V65H0.888672V55.0469H4.58691C5.7627 55.0469 6.6696 55.3089 7.30762 55.833C7.94564 56.3571 8.26465 57.0977 8.26465 58.0547C8.26465 58.7337 8.11654 59.3011 7.82031 59.7568C7.52865 60.208 7.08431 60.568 6.4873 60.8369L8.64062 64.9043V65H6.43945L4.57324 61.3564ZM2.93945 59.6953H4.59375C5.10872 59.6953 5.50749 59.5654 5.79004 59.3057C6.07259 59.0413 6.21387 58.679 6.21387 58.2188C6.21387 57.7493 6.07943 57.3802 5.81055 57.1113C5.54622 56.8424 5.13835 56.708 4.58691 56.708H2.93945V59.6953ZM14.9912 62.3887C14.9912 62.0013 14.8545 61.7051 14.5811 61.5C14.3076 61.2904 13.8154 61.0716 13.1045 60.8438C12.3936 60.6113 11.8307 60.3835 11.416 60.1602C10.2858 59.5495 9.7207 58.7269 9.7207 57.6924C9.7207 57.1546 9.87109 56.6761 10.1719 56.2568C10.4772 55.833 10.9124 55.5026 11.4775 55.2656C12.0472 55.0286 12.6852 54.9102 13.3916 54.9102C14.1025 54.9102 14.736 55.04 15.292 55.2998C15.848 55.555 16.2786 55.9173 16.584 56.3867C16.8939 56.8561 17.0488 57.3893 17.0488 57.9863H14.998C14.998 57.5306 14.8545 57.1774 14.5674 56.9268C14.2803 56.6715 13.877 56.5439 13.3574 56.5439C12.8561 56.5439 12.4665 56.651 12.1885 56.8652C11.9105 57.0749 11.7715 57.3529 11.7715 57.6992C11.7715 58.0228 11.9333 58.2939 12.2568 58.5127C12.585 58.7314 13.0658 58.9365 13.6992 59.1279C14.8659 59.4788 15.7158 59.9141 16.249 60.4336C16.7822 60.9531 17.0488 61.6003 17.0488 62.375C17.0488 63.2363 16.723 63.9131 16.0713 64.4053C15.4196 64.8929 14.5423 65.1367 13.4395 65.1367C12.6738 65.1367 11.9766 64.9977 11.3477 64.7197C10.7188 64.4372 10.238 64.0521 9.90527 63.5645C9.57715 63.0768 9.41309 62.5117 9.41309 61.8691H11.4707C11.4707 62.9674 12.127 63.5166 13.4395 63.5166C13.9271 63.5166 14.3076 63.4186 14.5811 63.2227C14.8545 63.0221 14.9912 62.7441 14.9912 62.3887ZM23.9805 63.3525H28.335V65H21.9297V55.0469H23.9805V63.3525ZM35.2734 62.9492H31.6777L30.9941 65H28.8135L32.5186 55.0469H34.4189L38.1445 65H35.9639L35.2734 62.9492ZM32.2314 61.2881H34.7197L33.4688 57.5625L32.2314 61.2881ZM47.168 65H45.1172L41.125 58.4512V65H39.0742V55.0469H41.125L45.124 61.6094V55.0469H47.168V65ZM56.834 63.7422C56.4648 64.1842 55.943 64.5283 55.2686 64.7744C54.5941 65.016 53.8467 65.1367 53.0264 65.1367C52.165 65.1367 51.4085 64.9499 50.7568 64.5762C50.1097 64.1979 49.6084 63.651 49.2529 62.9355C48.902 62.2201 48.722 61.3792 48.7129 60.4131V59.7363C48.7129 58.7428 48.8792 57.8838 49.2119 57.1592C49.5492 56.43 50.0322 55.874 50.6611 55.4912C51.2946 55.1038 52.0352 54.9102 52.8828 54.9102C54.0632 54.9102 54.986 55.1927 55.6514 55.7578C56.3167 56.3184 56.7109 57.1364 56.834 58.2119H54.8379C54.7467 57.6423 54.5439 57.2253 54.2295 56.9609C53.9196 56.6966 53.4912 56.5645 52.9443 56.5645C52.2471 56.5645 51.7161 56.8265 51.3516 57.3506C50.987 57.8747 50.8024 58.654 50.7979 59.6885V60.3242C50.7979 61.3678 50.9961 62.1562 51.3926 62.6895C51.7891 63.2227 52.3701 63.4893 53.1357 63.4893C53.9059 63.4893 54.4551 63.3252 54.7832 62.9971V61.2812H52.917V59.7705H56.834V63.7422Z" fill="black"/>
<defs>
<clipPath id="clip0">
<rect width="58" height="56" fill="white"/>
</clipPath>
</defs>
</svg>
