<svg width="25" height="25" viewBox="0 0 25 25" fill="none" xmlns="http://www.w3.org/2000/svg">
<path d="M14.7904 12.4999L24.5249 2.76513C25.1584 2.13193 25.1584 1.10811 24.5249 0.474906C23.8917 -0.158302 22.8679 -0.158302 22.2347 0.474906L12.4999 10.2097L2.76536 0.474906C2.13185 -0.158302 1.10834 -0.158302 0.475129 0.474906C-0.158376 1.10811 -0.158376 2.13193 0.475129 2.76513L10.2096 12.4999L0.475129 22.2347C-0.158376 22.8679 -0.158376 23.8918 0.475129 24.525C0.790696 24.8408 1.20562 24.9995 1.62024 24.9995C2.03487 24.9995 2.4495 24.8408 2.76536 24.525L12.4999 14.7902L22.2347 24.525C22.5505 24.8408 22.9652 24.9995 23.3798 24.9995C23.7944 24.9995 24.209 24.8408 24.5249 24.525C25.1584 23.8918 25.1584 22.8679 24.5249 22.2347L14.7904 12.4999Z" fill="#F02D2D"/>
</svg>
