<svg width="30" height="31" viewBox="0 0 30 31" fill="none" xmlns="http://www.w3.org/2000/svg">
<g clip-path="url(#clip0)">
<path d="M29.256 12.21L26.5788 11.8884C26.3052 10.8672 25.9044 9.9024 25.3884 9.0072L27.0528 6.8916C27.3072 6.5664 27.2784 6.0636 26.9844 5.7708L24.2256 3.0108C23.9352 2.7192 23.4312 2.688 23.1048 2.9424L20.9856 4.6092C20.094 4.0932 19.1292 3.6924 18.1104 3.4212L17.79 0.744C17.7408 0.3348 17.3628 0 16.95 0H13.0476C12.6348 0 12.2568 0.3348 12.2088 0.744L11.8872 3.4212C10.8672 3.6936 9.9012 4.0956 9.0096 4.6104L6.8916 2.946C6.5676 2.6916 6.0636 2.7216 5.772 3.0132L3.012 5.7744C2.7216 6.0648 2.6916 6.5688 2.9472 6.8952L4.6104 9.012C4.0944 9.9048 3.6936 10.8708 3.4212 11.892L0.7452 12.2124C0.336 12.2604 0 12.6384 0 13.0524V16.9548C0 17.3676 0.3348 17.7432 0.7452 17.7936L3.4224 18.1152C3.696 19.1328 4.0956 20.0976 4.6116 20.9904L2.9484 23.1096C2.6952 23.4348 2.724 23.9376 3.0168 24.2304L5.772 26.9916C6.0636 27.282 6.5676 27.3144 6.8916 27.06L9.0108 25.392C9.9036 25.908 10.8684 26.31 11.8884 26.5812L12.21 29.2572C12.2592 29.6676 12.636 30.0012 13.0488 30.0012H16.9512C17.3652 30.0012 17.742 29.6676 17.79 29.2572L18.1116 26.5812C19.1328 26.3076 20.0976 25.9068 20.9892 25.392L23.1084 27.0564C23.4336 27.3108 23.9364 27.2808 24.228 26.9892L26.9868 24.228C27.2796 23.9376 27.3096 23.4336 27.054 23.106L25.3884 20.9892C25.9056 20.0964 26.3052 19.1316 26.5788 18.1128L29.2548 17.7912C29.6652 17.742 30 17.3676 30 16.9524V13.05C30.0012 12.6348 29.6676 12.2592 29.256 12.21ZM15.0012 22.5C10.8588 22.5 7.5012 19.1424 7.5012 15C7.5012 10.8576 10.8588 7.5 15.0012 7.5C19.1436 7.5 22.5012 10.8576 22.5012 15C22.5012 19.1424 19.1448 22.5 15.0012 22.5Z" fill="black"/>
</g>
<defs>
<clipPath id="clip0">
<rect width="30" height="30.0012" fill="white"/>
</clipPath>
</defs>
</svg>
