<svg width="55" height="55" viewBox="0 0 55 55" fill="none" xmlns="http://www.w3.org/2000/svg">
<path d="M54.3406 44.7293L32.0032 5.07621C30.0985 1.61311 24.9038 1.61311 22.999 5.07621L0.661707 44.7293C-1.24297 48.1924 1.18122 52.5214 5.16383 52.5214H49.6653C53.8211 52.3483 56.2453 48.1924 54.3406 44.7293Z" fill="#E24C4B"/>
<path d="M27.5011 7.67346L49.8384 47.3266H5.16382L27.5011 7.67346Z" fill="white"/>
<path d="M23.8648 25.855L25.2501 35.0324C25.4233 36.0713 26.289 36.937 27.5012 36.937C28.5401 36.937 29.5791 36.0713 29.7523 35.0324L31.1375 25.855C31.4838 23.6039 29.7523 21.6992 27.5012 21.6992C25.25 21.6991 23.6916 23.6039 23.8648 25.855Z" fill="#1B1B1B"/>
<path d="M27.5011 42.9975C28.6487 42.9975 29.579 42.0672 29.579 40.9196C29.579 39.772 28.6487 38.8417 27.5011 38.8417C26.3535 38.8417 25.4232 39.772 25.4232 40.9196C25.4232 42.0672 26.3535 42.9975 27.5011 42.9975Z" fill="#1B1B1B"/>
</svg>
